<svg xmlns="http://www.w3.org/2000/svg" viewBox="0 0 222.02 222.02"><defs><style>.cls-1,.cls-2{fill:none;}.cls-2{stroke:#000;stroke-miterlimit:10;stroke-width:12px;}</style></defs><g id="Layer_2" data-name="Layer 2"><g id="Layer_2-2" data-name="Layer 2"><g id="Logo"><polygon points="176.01 73.83 176.01 79.96 170.89 87.27 110.44 87.27 104.44 73.83 176.01 73.83"/><polygon points="176.01 135.27 176.01 148.23 137.68 148.23 134 140 134 139.99 133.98 139.94 131.89 135.27 176.01 135.27"/><polygon points="174.55 82 170.86 87.27 137.25 135.27 133.98 139.94 131.89 135.27 127.45 125.33 154.1 87.27 163.3 74.13 174.55 82"/><polygon class="cls-1" points="176.01 79.96 176.01 87.27 170.89 87.27 176.01 79.96"/><polyline class="cls-1" points="170.89 87.27 137.31 135.27 134 139.99"/><path d="M127.61,148c-12.44,1.22-17.12-6.28-17.69-7.28h0L87,89.25h0l-2-4.52L80.18,74c12.87-1.26,17.44,6.81,17.74,7.36a0,0,0,0,0,0,0Z"/><path class="cls-1" d="M97.92,81.38a0,0,0,0,0,0,0"/><path d="M76.7,112.31,72.84,121l0,0L61.7,146l0,.06c-.31.62-.61,1.28-.89,2l-14.71,0L76,80.74C81.48,92.59,79.34,104.54,76.7,112.31Z"/><path class="cls-1" d="M61.67,146l-.89,2C61.06,147.32,61.36,146.66,61.67,146Z"/><path d="M95.79,127.17a6.61,6.61,0,0,1-6.3,6.78c-2.55-.19-18.24-1.14-26,9.24A18.61,18.61,0,0,0,61.7,146l11.12-25,0,0H89.49A6.59,6.59,0,0,1,95.79,127.17Z"/><circle class="cls-2" cx="111.01" cy="111.01" r="105.01"/></g></g></g></svg>